<svg width="144" height="17" viewBox="0 0 144 17" fill="none" xmlns="http://www.w3.org/2000/svg">
<rect width="144" height="17" fill="#F5F5F5"/>
<path d="M12.7706 1.45455V16H10.4268L3.57315 6.09233H3.45241V16H0.817472V1.45455H3.17543L10.022 11.3693H10.1499V1.45455H12.7706ZM20.2866 16.2131C19.2212 16.2131 18.2979 15.9787 17.5167 15.5099C16.7354 15.0412 16.1294 14.3854 15.6985 13.5426C15.2724 12.6998 15.0593 11.715 15.0593 10.5881C15.0593 9.46117 15.2724 8.47396 15.6985 7.62642C16.1294 6.77888 16.7354 6.12074 17.5167 5.65199C18.2979 5.18324 19.2212 4.94886 20.2866 4.94886C21.3519 4.94886 22.2752 5.18324 23.0565 5.65199C23.8377 6.12074 24.4414 6.77888 24.8675 7.62642C25.2984 8.47396 25.5138 9.46117 25.5138 10.5881C25.5138 11.715 25.2984 12.6998 24.8675 13.5426C24.4414 14.3854 23.8377 15.0412 23.0565 15.5099C22.2752 15.9787 21.3519 16.2131 20.2866 16.2131ZM20.3008 14.1534C20.8784 14.1534 21.3614 13.9948 21.7496 13.6776C22.1379 13.3556 22.4267 12.9247 22.6161 12.3849C22.8103 11.8452 22.9073 11.2438 22.9073 10.581C22.9073 9.91335 22.8103 9.30966 22.6161 8.76989C22.4267 8.22538 22.1379 7.79214 21.7496 7.47017C21.3614 7.1482 20.8784 6.98722 20.3008 6.98722C19.7089 6.98722 19.2165 7.1482 18.8235 7.47017C18.4353 7.79214 18.1441 8.22538 17.9499 8.76989C17.7605 9.30966 17.6658 9.91335 17.6658 10.581C17.6658 11.2438 17.7605 11.8452 17.9499 12.3849C18.1441 12.9247 18.4353 13.3556 18.8235 13.6776C19.2165 13.9948 19.7089 14.1534 20.3008 14.1534ZM32.7706 16V1.45455H42.0888V3.66335H35.4055V7.61222H41.4496V9.82102H35.4055V16H32.7706ZM44.3757 16V5.09091H46.9467V16H44.3757ZM45.6683 3.54261C45.2611 3.54261 44.9107 3.40767 44.6172 3.13778C44.3236 2.86316 44.1768 2.53409 44.1768 2.15057C44.1768 1.76231 44.3236 1.43324 44.6172 1.16335C44.9107 0.88873 45.2611 0.75142 45.6683 0.75142C46.0803 0.75142 46.4306 0.88873 46.7195 1.16335C47.013 1.43324 47.1598 1.76231 47.1598 2.15057C47.1598 2.53409 47.013 2.86316 46.7195 3.13778C46.4306 3.40767 46.0803 3.54261 45.6683 3.54261ZM52.1616 1.45455V16H49.5906V1.45455H52.1616ZM59.6349 16.2131C58.5412 16.2131 57.5966 15.9858 56.8011 15.5312C56.0104 15.072 55.402 14.4233 54.9759 13.5852C54.5497 12.7424 54.3366 11.7505 54.3366 10.6094C54.3366 9.48722 54.5497 8.50237 54.9759 7.65483C55.4067 6.80256 56.008 6.13968 56.7798 5.66619C57.5516 5.18797 58.4583 4.94886 59.5 4.94886C60.1723 4.94886 60.8068 5.05777 61.4034 5.27557C62.0047 5.48864 62.535 5.82008 62.9943 6.26989C63.4583 6.7197 63.8229 7.29261 64.0881 7.98864C64.3532 8.67992 64.4858 9.50379 64.4858 10.4602V11.2486H55.544V9.51562H62.0213C62.0166 9.0232 61.91 8.58523 61.7017 8.2017C61.4934 7.81345 61.2022 7.50805 60.8281 7.28551C60.4588 7.06297 60.0279 6.9517 59.5355 6.9517C59.0099 6.9517 58.5483 7.07955 58.1506 7.33523C57.7528 7.58617 57.4427 7.91761 57.2202 8.32955C57.0024 8.73674 56.8911 9.18419 56.8864 9.67188V11.1847C56.8864 11.8191 57.0024 12.3636 57.2344 12.8182C57.4664 13.268 57.7907 13.6136 58.2074 13.8551C58.6241 14.0919 59.1117 14.2102 59.6705 14.2102C60.0445 14.2102 60.383 14.1581 60.6861 14.054C60.9891 13.9451 61.2519 13.7865 61.4744 13.5781C61.697 13.3698 61.8651 13.1117 61.9787 12.804L64.3793 13.0739C64.2277 13.7083 63.9389 14.2623 63.5128 14.7358C63.0914 15.2045 62.5516 15.5691 61.8935 15.8295C61.2353 16.0852 60.4825 16.2131 59.6349 16.2131ZM84.1857 6.36222H81.5295C81.4537 5.92661 81.314 5.54072 81.1104 5.20455C80.9068 4.86364 80.6535 4.57481 80.3505 4.33807C80.0475 4.10133 79.7018 3.92377 79.3136 3.8054C78.93 3.68229 78.5157 3.62074 78.0707 3.62074C77.2799 3.62074 76.5792 3.8196 75.9684 4.21733C75.3576 4.61032 74.8794 5.18797 74.5337 5.95028C74.1881 6.70786 74.0153 7.63352 74.0153 8.72727C74.0153 9.83996 74.1881 10.7775 74.5337 11.5398C74.8841 12.2973 75.3623 12.8703 75.9684 13.2585C76.5792 13.642 77.2776 13.8338 78.0636 13.8338C78.4992 13.8338 78.9064 13.777 79.2852 13.6634C79.6687 13.545 80.012 13.3722 80.315 13.1449C80.6228 12.9176 80.8808 12.6383 81.0891 12.3068C81.3022 11.9754 81.449 11.5966 81.5295 11.1705L84.1857 11.1847C84.0863 11.8759 83.8709 12.5246 83.5394 13.1307C83.2127 13.7367 82.7842 14.2718 82.2539 14.7358C81.7236 15.1951 81.1033 15.5549 80.3931 15.8153C79.6829 16.071 78.8945 16.1989 78.0281 16.1989C76.7496 16.1989 75.6085 15.9029 74.6048 15.3111C73.601 14.7192 72.8103 13.8646 72.2326 12.7472C71.6549 11.6297 71.3661 10.2898 71.3661 8.72727C71.3661 7.16004 71.6573 5.82008 72.2397 4.70739C72.8221 3.58996 73.6152 2.73532 74.619 2.14347C75.6228 1.55161 76.7591 1.25568 78.0281 1.25568C78.8377 1.25568 79.5906 1.36932 80.2866 1.59659C80.9826 1.82386 81.6029 2.15767 82.1474 2.59801C82.6919 3.03362 83.1393 3.56866 83.4897 4.20312C83.8448 4.83286 84.0768 5.55256 84.1857 6.36222ZM89.0561 9.60795V16H86.4851V1.45455H88.9993V6.9446H89.1271C89.3828 6.32907 89.7782 5.84375 90.3132 5.48864C90.853 5.12879 91.5395 4.94886 92.3729 4.94886C93.1304 4.94886 93.791 5.10748 94.3544 5.42472C94.9179 5.74195 95.3535 6.20597 95.6612 6.81676C95.9737 7.42756 96.13 8.1733 96.13 9.05398V16H93.5589V9.4517C93.5589 8.7178 93.3696 8.14725 92.9908 7.74006C92.6167 7.32812 92.0911 7.12216 91.4141 7.12216C90.9595 7.12216 90.5523 7.22159 90.1925 7.42045C89.8374 7.61458 89.558 7.89631 89.3544 8.26562C89.1555 8.63494 89.0561 9.08239 89.0561 9.60795ZM103.509 16.2131C102.444 16.2131 101.521 15.9787 100.739 15.5099C99.9581 15.0412 99.352 14.3854 98.9212 13.5426C98.495 12.6998 98.282 11.715 98.282 10.5881C98.282 9.46117 98.495 8.47396 98.9212 7.62642C99.352 6.77888 99.9581 6.12074 100.739 5.65199C101.521 5.18324 102.444 4.94886 103.509 4.94886C104.575 4.94886 105.498 5.18324 106.279 5.65199C107.06 6.12074 107.664 6.77888 108.09 7.62642C108.521 8.47396 108.737 9.46117 108.737 10.5881C108.737 11.715 108.521 12.6998 108.09 13.5426C107.664 14.3854 107.06 15.0412 106.279 15.5099C105.498 15.9787 104.575 16.2131 103.509 16.2131ZM103.523 14.1534C104.101 14.1534 104.584 13.9948 104.972 13.6776C105.361 13.3556 105.649 12.9247 105.839 12.3849C106.033 11.8452 106.13 11.2438 106.13 10.581C106.13 9.91335 106.033 9.30966 105.839 8.76989C105.649 8.22538 105.361 7.79214 104.972 7.47017C104.584 7.1482 104.101 6.98722 103.523 6.98722C102.932 6.98722 102.439 7.1482 102.046 7.47017C101.658 7.79214 101.367 8.22538 101.173 8.76989C100.983 9.30966 100.888 9.91335 100.888 10.581C100.888 11.2438 100.983 11.8452 101.173 12.3849C101.367 12.9247 101.658 13.3556 102.046 13.6776C102.439 13.9948 102.932 14.1534 103.523 14.1534ZM119.541 7.97443L117.197 8.23011C117.131 7.99337 117.015 7.77083 116.849 7.5625C116.688 7.35417 116.47 7.18608 116.196 7.05824C115.921 6.9304 115.585 6.86648 115.187 6.86648C114.652 6.86648 114.202 6.98248 113.838 7.21449C113.478 7.4465 113.3 7.74716 113.305 8.11648C113.3 8.43371 113.416 8.69176 113.653 8.89062C113.895 9.08949 114.292 9.25284 114.846 9.38068L116.707 9.77841C117.739 10.0009 118.506 10.3537 119.008 10.8366C119.515 11.3196 119.77 11.9517 119.775 12.733C119.77 13.4195 119.569 14.0256 119.172 14.5511C118.779 15.072 118.232 15.4792 117.531 15.7727C116.83 16.0663 116.025 16.2131 115.116 16.2131C113.781 16.2131 112.706 15.9337 111.892 15.375C111.077 14.8116 110.592 14.0279 110.436 13.0241L112.943 12.7827C113.056 13.2751 113.298 13.6468 113.667 13.8977C114.037 14.1487 114.517 14.2741 115.109 14.2741C115.72 14.2741 116.21 14.1487 116.579 13.8977C116.953 13.6468 117.14 13.3366 117.14 12.9673C117.14 12.6548 117.02 12.3968 116.778 12.1932C116.541 11.9896 116.172 11.8333 115.67 11.7244L113.809 11.3338C112.763 11.116 111.989 10.7491 111.487 10.233C110.985 9.71212 110.736 9.05398 110.741 8.25852C110.736 7.58617 110.919 7.00379 111.288 6.51136C111.662 6.0142 112.181 5.63068 112.843 5.3608C113.511 5.08617 114.28 4.94886 115.152 4.94886C116.43 4.94886 117.436 5.22112 118.17 5.76562C118.909 6.31013 119.366 7.0464 119.541 7.97443ZM126.725 16.2131C125.631 16.2131 124.686 15.9858 123.891 15.5312C123.1 15.072 122.492 14.4233 122.066 13.5852C121.64 12.7424 121.426 11.7505 121.426 10.6094C121.426 9.48722 121.64 8.50237 122.066 7.65483C122.497 6.80256 123.098 6.13968 123.87 5.66619C124.641 5.18797 125.548 4.94886 126.59 4.94886C127.262 4.94886 127.897 5.05777 128.493 5.27557C129.095 5.48864 129.625 5.82008 130.084 6.26989C130.548 6.7197 130.913 7.29261 131.178 7.98864C131.443 8.67992 131.576 9.50379 131.576 10.4602V11.2486H122.634V9.51562H129.111C129.106 9.0232 129 8.58523 128.792 8.2017C128.583 7.81345 128.292 7.50805 127.918 7.28551C127.549 7.06297 127.118 6.9517 126.625 6.9517C126.1 6.9517 125.638 7.07955 125.24 7.33523C124.843 7.58617 124.533 7.91761 124.31 8.32955C124.092 8.73674 123.981 9.18419 123.976 9.67188V11.1847C123.976 11.8191 124.092 12.3636 124.324 12.8182C124.556 13.268 124.881 13.6136 125.297 13.8551C125.714 14.0919 126.202 14.2102 126.76 14.2102C127.134 14.2102 127.473 14.1581 127.776 14.054C128.079 13.9451 128.342 13.7865 128.564 13.5781C128.787 13.3698 128.955 13.1117 129.069 12.804L131.469 13.0739C131.318 13.7083 131.029 14.2623 130.603 14.7358C130.181 15.2045 129.641 15.5691 128.983 15.8295C128.325 16.0852 127.572 16.2131 126.725 16.2131ZM136.322 9.60795V16H133.751V5.09091H136.208V6.9446H136.336C136.587 6.33381 136.987 5.84848 137.536 5.48864C138.09 5.12879 138.774 4.94886 139.589 4.94886C140.342 4.94886 140.997 5.10985 141.556 5.43182C142.12 5.75379 142.555 6.22017 142.863 6.83097C143.175 7.44176 143.329 8.18276 143.325 9.05398V16H140.754V9.4517C140.754 8.72254 140.564 8.15199 140.185 7.74006C139.811 7.32812 139.293 7.12216 138.63 7.12216C138.18 7.12216 137.78 7.22159 137.43 7.42045C137.084 7.61458 136.812 7.89631 136.613 8.26562C136.419 8.63494 136.322 9.08239 136.322 9.60795Z" fill="black"/>
</svg>
